<svg width="347" height="502" viewBox="0 0 347 502" fill="none" xmlns="http://www.w3.org/2000/svg">
<path d="M7 70C55 46.6667 161.4 14 203 70C255 140 267 146 275 212C283 278 291 370 247 396C211.8 416.8 101.667 404.667 51 396M51 396L75 446M51 396L93 366" stroke="#444444" stroke-width="2"/>
<path d="M9.59812 45.0792L7.59473 45.754L4.96681 37.9528L2.39292 38.8198L1.82979 37.1481L8.98096 34.7392L9.54409 36.4109L6.9702 37.2779L9.59812 45.0792ZM18.4978 42.0812L17.0481 40.0582L13.5986 41.2202L13.6684 43.7081L11.5058 44.4365L11.6448 33.7975L14.0993 32.9707L20.6604 41.3528L18.4978 42.0812ZM14.5711 36.5641C14.4762 36.4286 14.3547 36.2578 14.2064 36.0517C14.0582 35.8456 13.9085 35.635 13.7573 35.42C13.6061 35.2051 13.4786 35.0166 13.3747 34.8546C13.3901 35.0464 13.4027 35.2883 13.4125 35.5805C13.4281 35.8608 13.4408 36.1323 13.4505 36.395C13.466 36.6458 13.4725 36.8258 13.4699 36.935L13.5351 39.3654L16.0029 38.5341L14.5711 36.5641ZM29.5818 38.3475L27.2998 39.1162L22.2457 35.4709L23.8636 40.2737L21.8602 40.9486L18.6691 31.4756L20.6725 30.8008L22.2189 35.3913L24.069 29.6566L26.205 28.9371L24.2884 34.6498L29.5818 38.3475ZM31.3997 39.7147L30.7427 39.1678C31.1023 39.0073 31.3702 38.794 31.5464 38.5278C31.7256 38.2704 31.7601 37.9781 31.6499 37.6508C31.6087 37.7041 31.5425 37.7707 31.4513 37.8507C31.3689 37.9277 31.2525 37.9915 31.1022 38.0422C30.8722 38.1196 30.6612 38.1218 30.4691 38.0486C30.277 37.9754 30.1408 37.8194 30.0603 37.5806C29.965 37.2976 29.9745 37.0334 30.0888 36.7881C30.209 36.5309 30.446 36.3427 30.7998 36.2236C31.242 36.0746 31.6184 36.0955 31.9289 36.2864C32.2364 36.4684 32.4602 36.7673 32.6003 37.183C32.7194 37.5368 32.7368 37.8806 32.6522 38.2144C32.5795 38.554 32.4285 38.8511 32.1991 39.1057C31.9815 39.3661 31.715 39.5691 31.3997 39.7147ZM37.693 35.6152L34.502 26.1422L41.9981 23.6171L45.1891 33.09L43.1858 33.7649L40.5578 25.9636L37.0685 27.139L39.6964 34.9403L37.693 35.6152ZM54.5762 24.6392C54.8235 25.3733 54.9555 26.0724 54.9724 26.7365C54.9951 27.3887 54.8938 27.994 54.6683 28.5526C54.4516 29.1081 54.0946 29.5977 53.5971 30.0214C53.1085 30.442 52.4794 30.782 51.7099 31.0412C50.9404 31.3004 50.2294 31.4119 49.5771 31.3756C48.9305 31.3274 48.35 31.1537 47.8355 30.8542C47.3269 30.543 46.8784 30.1179 46.49 29.579C46.1105 29.0372 45.7971 28.3992 45.5498 27.665C45.2191 26.6833 45.0908 25.7761 45.1649 24.9435C45.2478 24.108 45.5539 23.3795 46.0832 22.758C46.6184 22.1247 47.4034 21.6337 48.4383 21.2851C49.4643 20.9395 50.3775 20.8584 51.178 21.0418C51.9754 21.2164 52.657 21.6171 53.2227 22.244C53.7943 22.859 54.2454 23.6574 54.5762 24.6392ZM47.6638 26.9677C47.8873 27.6311 48.1635 28.1733 48.4924 28.5943C48.8214 29.0153 49.206 29.2945 49.6462 29.4318C50.0864 29.5691 50.5851 29.5439 51.1423 29.3562C51.7172 29.1626 52.134 28.8794 52.3925 28.5067C52.6599 28.131 52.7928 27.6775 52.7911 27.1462C52.7983 26.612 52.6901 26.0132 52.4666 25.3498C52.13 24.3503 51.6805 23.6301 51.1183 23.1892C50.5562 22.7483 49.8505 22.6708 49.0014 22.9568C48.4353 23.1475 48.0186 23.4307 47.7512 23.8064C47.4838 24.1821 47.3465 24.637 47.3394 25.1713C47.3322 25.7055 47.4404 26.3043 47.6638 26.9677ZM60.931 17.2394L61.4896 18.8978L57.5094 20.2386L60.1418 28.0531L58.1384 28.728L54.9473 19.255L60.931 17.2394ZM73.3369 23.6082L71.3335 24.2831L69.957 20.1967L66.2023 21.4615L67.5788 25.5479L65.5754 26.2227L62.3844 16.7498L64.3878 16.0749L65.6392 19.7898L69.3939 18.525L68.1425 14.8101L70.1459 14.1353L73.3369 23.6082ZM81.5183 20.8523L80.0686 18.8292L76.619 19.9912L76.6889 22.4791L74.5263 23.2076L74.6653 12.5685L77.1197 11.7417L83.6809 20.1238L81.5183 20.8523ZM77.5916 15.3351C77.4967 15.1997 77.3751 15.0289 77.2269 14.8227C77.0787 14.6166 76.929 14.406 76.7778 14.1911C76.6265 13.9761 76.499 13.7876 76.3952 13.6256C76.4106 13.8174 76.4232 14.0594 76.4329 14.3515C76.4486 14.6319 76.4613 14.9034 76.4709 15.166C76.4865 15.4168 76.493 15.5969 76.4904 15.7061L76.5556 18.1364L79.0234 17.3051L77.5916 15.3351ZM92.3768 17.1945L90.3734 17.8694L87.7455 10.0681L85.4236 10.8502C85.5076 11.2749 85.5991 11.7366 85.6981 12.2351C85.8059 12.7306 85.9079 13.2379 86.004 13.757C86.1059 14.2644 86.196 14.7511 86.2742 15.2172C86.3495 15.6744 86.4083 16.083 86.4508 16.4429C86.5205 17.0301 86.5236 17.551 86.4602 18.0057C86.4055 18.4575 86.2444 18.8417 85.9768 19.1583C85.7181 19.472 85.3234 19.7182 84.7927 19.897C84.6158 19.9566 84.4432 19.9999 84.2751 20.027C84.1069 20.0541 83.9447 20.0694 83.7882 20.0728L83.2341 18.4277C83.361 18.4243 83.4819 18.418 83.597 18.4088C83.7209 18.3966 83.8492 18.3682 83.9819 18.3235C84.1588 18.2639 84.2854 18.1572 84.3616 18.0035C84.4379 17.8498 84.4741 17.6209 84.4702 17.317C84.4633 17.0041 84.4206 16.5851 84.3422 16.06C84.3149 15.8329 84.2667 15.5142 84.1975 15.1042C84.1253 14.6853 84.0397 14.1971 83.9405 13.6396C83.8472 13.0703 83.739 12.4567 83.6159 11.7989C83.4898 11.1323 83.3519 10.445 83.2021 9.73716L89.1857 7.72152L92.3768 17.1945ZM91.5754 6.91653L93.3798 6.30871L94.9217 10.886C94.9962 11.1071 95.0752 11.3563 95.1587 11.6334C95.2422 11.9106 95.3242 12.1834 95.4048 12.4517C95.4823 12.7112 95.5495 12.9397 95.6062 13.1373C95.6599 13.326 95.6943 13.4572 95.7093 13.531L95.7491 13.5176L97.705 4.85174L100.106 4.0428L103.297 13.5158L101.506 14.1191L99.9734 9.56838C99.8929 9.32957 99.8095 9.06715 99.723 8.78113C99.6335 8.48627 99.5485 8.20467 99.4679 7.93634C99.3962 7.66503 99.332 7.4306 99.2753 7.23303C99.2245 7.02363 99.1931 6.88649 99.1811 6.8216L99.128 6.83947L97.1811 15.5761L94.7665 16.3895L91.5754 6.91653Z" fill="#444444"/>
<path d="M187.766 458.856C190.178 458.082 192.271 457.664 194.042 457.6C195.831 457.502 197.295 457.831 198.433 458.586C199.589 459.308 200.439 460.52 200.984 462.221C201.31 463.237 201.442 464.217 201.381 465.16C201.319 466.104 201.057 466.945 200.593 467.681C200.154 468.41 199.515 468.993 198.675 469.43L198.736 469.621C199.707 469.505 200.634 469.558 201.517 469.779C202.4 470 203.196 470.473 203.904 471.198C204.613 471.923 205.195 472.997 205.651 474.419C206.18 476.069 206.23 477.622 205.8 479.076C205.387 480.496 204.533 481.764 203.238 482.879C201.936 483.969 200.256 484.843 198.199 485.503L188.029 488.763L179.31 461.567L187.766 458.856ZM191.869 469.428C193.545 468.89 194.615 468.253 195.079 467.517C195.568 466.772 195.65 465.891 195.325 464.876C194.991 463.834 194.37 463.207 193.461 462.995C192.553 462.782 191.274 462.94 189.623 463.469L186.576 464.446L188.517 470.502L191.869 469.428ZM189.983 475.073L192.254 482.158L196.025 480.949C197.752 480.396 198.852 479.679 199.326 478.799C199.792 477.893 199.846 476.882 199.488 475.765C199.268 475.079 198.924 474.531 198.457 474.121C198.014 473.703 197.393 473.468 196.592 473.416C195.792 473.365 194.782 473.535 193.563 473.925L189.983 475.073ZM224.477 468.3C224.268 470.271 223.936 472.029 223.48 473.576C223.041 475.089 222.267 476.387 221.158 477.471C220.049 478.554 218.428 479.438 216.295 480.122C215.635 480.333 214.895 480.515 214.075 480.665C213.255 480.816 212.487 480.908 211.769 480.942L210.182 475.991C210.873 476.049 211.603 476.011 212.372 475.877C213.141 475.742 213.843 475.573 214.478 475.37C215.316 475.101 215.944 474.746 216.362 474.303C216.806 473.853 217.103 473.338 217.253 472.758C217.42 472.144 217.512 471.513 217.527 470.863L201.855 454.339L207.949 452.385L216.789 462.531C216.997 462.744 217.255 463.026 217.563 463.375C217.871 463.724 218.183 464.086 218.499 464.461C218.816 464.836 219.077 465.172 219.285 465.469L219.475 465.408C219.479 465.071 219.488 464.662 219.502 464.182C219.533 463.668 219.564 463.154 219.596 462.639C219.644 462.092 219.688 461.616 219.726 461.212L220.786 448.27L226.728 446.365L224.477 468.3ZM234.395 466.338C234.377 465.672 234.31 464.895 234.194 464.008C234.095 463.088 233.968 462.387 233.813 461.904L241.279 459.511C242.574 459.095 243.501 458.756 244.061 458.493C244.638 458.196 244.94 458.001 244.966 457.909C244.918 458.372 244.932 459.026 245.007 459.87C245.107 460.706 245.287 461.53 245.547 462.343L238.843 464.492C237.447 464.94 236.396 465.332 235.693 465.67C234.981 465.982 234.548 466.205 234.395 466.338ZM269.845 462.534L265.788 456.694L255.885 459.869L255.98 466.979L249.771 468.97L250.615 438.582L257.661 436.323L276.054 460.544L269.845 462.534ZM258.858 446.608C258.593 446.217 258.253 445.724 257.838 445.129C257.423 444.534 257.004 443.926 256.581 443.306C256.159 442.685 255.802 442.141 255.512 441.674C255.548 442.223 255.574 442.914 255.59 443.75C255.623 444.551 255.647 445.327 255.664 446.078C255.698 446.795 255.709 447.31 255.697 447.622L255.781 454.567L262.866 452.296L258.858 446.608ZM301.019 452.541L295.268 454.384L288.087 431.987L281.422 434.124C281.644 435.341 281.886 436.664 282.147 438.092C282.435 439.512 282.705 440.966 282.957 442.453C283.227 443.906 283.464 445.301 283.668 446.636C283.864 447.945 284.015 449.115 284.121 450.145C284.296 451.825 284.283 453.313 284.082 454.61C283.907 455.898 283.431 456.989 282.653 457.882C281.901 458.768 280.763 459.454 279.239 459.943C278.731 460.106 278.237 460.222 277.755 460.293C277.274 460.363 276.809 460.4 276.362 460.403L274.848 455.68C275.211 455.676 275.557 455.663 275.886 455.641C276.241 455.612 276.608 455.536 276.989 455.414C277.497 455.251 277.863 454.951 278.087 454.515C278.312 454.079 278.425 453.427 278.426 452.559C278.42 451.665 278.315 450.466 278.113 448.962C278.045 448.312 277.921 447.4 277.74 446.226C277.552 445.026 277.327 443.628 277.067 442.031C276.825 440.4 276.541 438.643 276.217 436.759C275.885 434.849 275.52 432.88 275.122 430.851L292.3 425.344L301.019 452.541ZM313.676 436.974L310.661 449.45L304.261 451.501L308.159 437.062C307.325 436.993 306.446 436.785 305.523 436.437C304.591 436.064 303.725 435.459 302.925 434.623C302.117 433.762 301.477 432.595 301.005 431.123C300.199 428.609 300.486 426.402 301.865 424.504C303.237 422.58 305.548 421.097 308.798 420.055L317.635 417.222L326.354 444.419L320.602 446.263L317.256 435.826L313.676 436.974ZM310.541 424.705C309.551 425.022 308.736 425.409 308.099 425.866C307.486 426.314 307.071 426.853 306.853 427.483C306.66 428.105 306.698 428.835 306.967 429.673C307.35 430.867 308.048 431.693 309.064 432.151C310.096 432.577 311.425 432.529 313.05 432.008L315.754 431.141L313.398 423.789L310.541 424.705ZM333.411 433.671C333.259 433.72 333.012 433.561 332.67 433.195C332.321 432.803 331.91 432.262 331.437 431.574C330.964 430.885 330.475 430.104 329.971 429.229C329.467 428.355 328.967 427.451 328.472 426.518C327.976 425.584 327.532 424.677 327.137 423.795C326.734 422.888 326.419 422.079 326.191 421.368C325.881 420.403 325.923 419.704 326.316 419.27C326.709 418.836 327.439 418.448 328.505 418.106C329.216 417.878 329.808 417.758 330.281 417.747C330.77 417.702 331.169 417.812 331.478 418.077C331.787 418.342 332.048 418.804 332.259 419.465C332.487 420.176 332.701 421.017 332.901 421.989C333.092 422.936 333.245 423.937 333.36 424.993C333.499 426.04 333.605 427.07 333.678 428.083C333.768 429.062 333.808 429.973 333.798 430.817C333.814 431.652 333.794 432.33 333.737 432.853C333.672 433.349 333.564 433.622 333.411 433.671ZM336.038 441.734C335.099 442.035 334.288 442.085 333.608 441.883C332.927 441.681 332.444 441.136 332.159 440.247C331.874 439.359 331.937 438.638 332.348 438.086C332.785 437.526 333.486 437.092 334.451 436.782C335.416 436.473 336.226 436.423 336.881 436.633C337.562 436.835 338.045 437.38 338.33 438.269C338.615 439.158 338.539 439.882 338.102 440.442C337.691 440.994 337.003 441.425 336.038 441.734Z" fill="#444444"/>
</svg>
