<svg width="97" height="37" viewBox="0 0 97 37" fill="none" xmlns="http://www.w3.org/2000/svg">
<path d="M19.47 6.58V24.22H22.32V34.24H17.94V28H4.53V34.24H0.15V24.22H1.8C2.36 23.1 2.9 21.92 3.42 20.68C3.94 19.44 4.42 18.11 4.86 16.69C5.32 15.27 5.73 13.73 6.09 12.07C6.45 10.39 6.75 8.56 6.99 6.58H19.47ZM10.59 10.36C10.45 11.4 10.25 12.51 9.99 13.69C9.73 14.85 9.42 16.04 9.06 17.26C8.72 18.48 8.34 19.68 7.92 20.86C7.5 22.04 7.05 23.16 6.57 24.22H14.94V10.36H10.59ZM37.9402 28H25.6102V6.58H37.9402V10.3H30.1402V15.01H37.4002V18.73H30.1402V24.25H37.9402V28ZM59.9473 28H55.4173V18.76H46.9273V28H42.3973V6.58H46.9273V14.98H55.4173V6.58H59.9473V28ZM79.7508 28V6.58H84.2808V14.8H86.0808C88.1008 14.8 89.7508 15.08 91.0308 15.64C92.3308 16.2 93.2908 16.97 93.9108 17.95C94.5308 18.93 94.8408 20.05 94.8408 21.31C94.8408 22.71 94.5308 23.91 93.9108 24.91C93.2908 25.91 92.3308 26.68 91.0308 27.22C89.7308 27.74 88.0508 28 85.9908 28H79.7508ZM85.8108 24.28C87.1908 24.28 88.2708 24.06 89.0508 23.62C89.8508 23.18 90.2508 22.41 90.2508 21.31C90.2508 20.55 90.0508 19.97 89.6508 19.57C89.2708 19.17 88.7208 18.9 88.0008 18.76C87.3008 18.6 86.4508 18.52 85.4508 18.52H84.2808V24.28H85.8108Z" fill="white"/>
<rect x="44" y="15" width="40" height="7" fill="#FF8C00" fill-opacity="0.7"/>
</svg>
